<?xml version="1.0" encoding="UTF-8"?>
<svg xmlns="http://www.w3.org/2000/svg" style="display:none">
  <!-- Lucide-style 24x24 line icons; stroke="currentColor" applied via .icn -->

  <symbol id="home" viewBox="0 0 24 24"><path d="M3 12l9-9 9 9"/><path d="M5 10v10h4v-6h6v6h4V10"/></symbol>
  <symbol id="book-open" viewBox="0 0 24 24"><path d="M2 4h7a3 3 0 0 1 3 3v13H5a3 3 0 0 1-3-3V4z"/><path d="M22 4h-7a3 3 0 0 0-3 3v13h7a3 3 0 0 0 3-3V4z"/></symbol>
  <symbol id="file-text" viewBox="0 0 24 24"><rect x="4" y="3" width="16" height="18" rx="2"/><line x1="8" y1="9" x2="16" y2="9"/><line x1="8" y1="13" x2="16" y2="13"/><line x1="8" y1="17" x2="13" y2="17"/></symbol>
  <symbol id="layers" viewBox="0 0 24 24"><polygon points="12,2 22,7 12,12 2,7"/><polyline points="2,12 12,17 22,12"/><polyline points="2,17 12,22 22,17"/></symbol>
  <symbol id="list-checks" viewBox="0 0 24 24"><polyline points="3,8 5,10 9,6"/><polyline points="3,16 5,18 9,14"/><line x1="13" y1="8" x2="21" y2="8"/><line x1="13" y1="16" x2="21" y2="16"/></symbol>
  <symbol id="bar-chart" viewBox="0 0 24 24"><line x1="3" y1="20" x2="21" y2="20"/><rect x="5" y="12" width="3" height="8"/><rect x="11" y="6" width="3" height="14"/><rect x="17" y="14" width="3" height="6"/></symbol>
  <symbol id="user" viewBox="0 0 24 24"><circle cx="12" cy="8" r="4"/><path d="M4 20c0-4 4-7 8-7s8 3 8 7"/></symbol>
  <symbol id="users" viewBox="0 0 24 24"><circle cx="9" cy="8" r="3.5"/><path d="M3 20c0-3 3-6 6-6s6 3 6 6"/><circle cx="17" cy="9" r="2.5"/><path d="M14 20c0-2.5 2-4 3-4s3 1.5 3 4"/></symbol>
  <symbol id="settings" viewBox="0 0 24 24"><circle cx="12" cy="12" r="3"/><path d="M12 2v3M12 19v3M5 5l2 2M17 17l2 2M2 12h3M19 12h3M5 19l2-2M17 7l2-2"/></symbol>
  <symbol id="log-out" viewBox="0 0 24 24"><path d="M9 3H5a2 2 0 0 0-2 2v14a2 2 0 0 0 2 2h4"/><polyline points="16,17 21,12 16,7"/><line x1="21" y1="12" x2="9" y2="12"/></symbol>
  <symbol id="plus" viewBox="0 0 24 24"><line x1="12" y1="5" x2="12" y2="19"/><line x1="5" y1="12" x2="19" y2="12"/></symbol>
  <symbol id="edit" viewBox="0 0 24 24"><path d="M11 4H4a2 2 0 0 0-2 2v14a2 2 0 0 0 2 2h14a2 2 0 0 0 2-2v-7"/><path d="M18 2l4 4-11 11H7v-4z"/></symbol>
  <symbol id="trash" viewBox="0 0 24 24"><polyline points="3,6 5,6 21,6"/><path d="M19 6l-1 14a2 2 0 0 1-2 2H8a2 2 0 0 1-2-2L5 6"/><line x1="10" y1="11" x2="10" y2="17"/><line x1="14" y1="11" x2="14" y2="17"/></symbol>
  <symbol id="check" viewBox="0 0 24 24"><polyline points="20,6 9,17 4,12"/></symbol>
  <symbol id="x" viewBox="0 0 24 24"><line x1="18" y1="6" x2="6" y2="18"/><line x1="6" y1="6" x2="18" y2="18"/></symbol>
  <symbol id="search" viewBox="0 0 24 24"><circle cx="11" cy="11" r="7"/><line x1="21" y1="21" x2="16.5" y2="16.5"/></symbol>
  <symbol id="upload" viewBox="0 0 24 24"><path d="M21 15v4a2 2 0 0 1-2 2H5a2 2 0 0 1-2-2v-4"/><polyline points="17,8 12,3 7,8"/><line x1="12" y1="3" x2="12" y2="15"/></symbol>
  <symbol id="download" viewBox="0 0 24 24"><path d="M21 15v4a2 2 0 0 1-2 2H5a2 2 0 0 1-2-2v-4"/><polyline points="7,10 12,15 17,10"/><line x1="12" y1="3" x2="12" y2="15"/></symbol>
  <symbol id="flame" viewBox="0 0 24 24"><path d="M12 2c2 4 5 6 5 11a5 5 0 0 1-10 0c0-3 2-4 2-7 0 0 2 1 3 4 0-3 0-5 0-8z"/></symbol>
  <symbol id="award" viewBox="0 0 24 24"><circle cx="12" cy="9" r="6"/><polyline points="8,14 6,22 12,18 18,22 16,14"/></symbol>
  <symbol id="shield" viewBox="0 0 24 24"><path d="M12 2l8 3v6c0 5-3.5 9-8 11-4.5-2-8-6-8-11V5z"/></symbol>
  <symbol id="heart" viewBox="0 0 24 24"><path d="M12 21s-7-4.5-9.5-9C1 8.5 3 5 6.5 5c2 0 3.5 1 5.5 3 2-2 3.5-3 5.5-3 3.5 0 5.5 3.5 4 7-2.5 4.5-9.5 9-9.5 9z"/></symbol>
  <symbol id="chevron-right" viewBox="0 0 24 24"><polyline points="9,6 15,12 9,18"/></symbol>
  <symbol id="clock" viewBox="0 0 24 24"><circle cx="12" cy="12" r="9"/><polyline points="12,7 12,12 16,14"/></symbol>
  <symbol id="play" viewBox="0 0 24 24"><polygon points="6,4 20,12 6,20"/></symbol>
  <symbol id="zap" viewBox="0 0 24 24"><polygon points="13,2 4,14 11,14 10,22 20,9 13,9"/></symbol>
  <symbol id="image" viewBox="0 0 24 24"><rect x="3" y="3" width="18" height="18" rx="2"/><circle cx="9" cy="9" r="2"/><polyline points="21,15 16,10 5,21"/></symbol>
  <symbol id="layout-dashboard" viewBox="0 0 24 24"><rect x="3" y="3" width="8" height="10" rx="1.5"/><rect x="13" y="3" width="8" height="6" rx="1.5"/><rect x="13" y="11" width="8" height="10" rx="1.5"/><rect x="3" y="15" width="8" height="6" rx="1.5"/></symbol>
</svg>
